<?xml version="1.0" encoding="utf-8"?>
<!-- Generator: Adobe Illustrator 26.3.1, SVG Export Plug-In . SVG Version: 6.00 Build 0)  -->
<svg version="1.1" id="Layer_1" xmlns="http://www.w3.org/2000/svg" xmlns:xlink="http://www.w3.org/1999/xlink" x="0px" y="0px"
	 viewBox="0 0 900 900" style="enable-background:new 0 0 900 900;" xml:space="preserve">
<style type="text/css">
	.st0{fill:#FFFFFF;}
</style>
<rect width="900" height="900"/>
<g>
	<polygon class="st0" points="524.03,277.15 374.64,277.15 410.18,318.48 410.07,318.53 449.34,364.02 488.6,318.53 488.49,318.48 	
		"/>
	<path class="st0" d="M278.98,233.45c1.17-1,2.37-1.87,3.59-2.62c0.05-0.03,0.1-0.07,0.16-0.1c1.19-0.72,2.41-1.31,3.64-1.81
		c0.14-0.06,0.29-0.12,0.43-0.18c1.19-0.46,2.4-0.82,3.61-1.1c0.17-0.04,0.34-0.08,0.51-0.11c1.21-0.26,2.43-0.43,3.64-0.53
		c0.15-0.01,0.29-0.02,0.44-0.03c1.25-0.08,2.5-0.1,3.74-0.04c0.05,0,0.11,0.01,0.16,0.01c1.29,0.07,2.57,0.2,3.83,0.4
		c0.01,0,0.03,0,0.04,0.01c1.23,0.19,2.45,0.45,3.64,0.75c0.12,0.03,0.23,0.05,0.35,0.08c1.14,0.29,2.25,0.62,3.33,0.98
		c0.14,0.05,0.29,0.09,0.43,0.14c1.06,0.36,2.09,0.74,3.09,1.14c0.13,0.05,0.25,0.1,0.38,0.16c1,0.41,1.97,0.84,2.89,1.27
		c0.06,0.03,0.12,0.06,0.18,0.09c1.9,0.9,3.59,1.81,5.01,2.64c0.07,0.04,0.14,0.08,0.2,0.12c0.66,0.39,1.26,0.75,1.79,1.09
		c0.08,0.05,0.16,0.1,0.23,0.15c0.5,0.32,0.94,0.6,1.3,0.85c0.06,0.04,0.12,0.08,0.18,0.13c0.33,0.22,0.62,0.42,0.8,0.56
		c0.03,0.02,0.05,0.04,0.08,0.06c0.14,0.1,0.26,0.19,0.26,0.19l18.91,2.06c-12.11-29.62-39.89-27.27-39.89-27.27
		c-33.09,0.59-36.77,34.44-36.77,34.44c-0.1,0.89-0.16,1.76-0.2,2.61c0.02-0.16,0.08-0.29,0.11-0.45
		c-1.37,26.71,26.58,36.19,26.58,36.19l20.9,8.65c-2.37,1.75-7.48,3.26-12.09,4.35c-1.01,0.22-2.17,0.44-3.35,0.65
		c-1.43,0.26-2.89,0.5-4.26,0.71c-0.21,0.03-0.43,0.07-0.64,0.1c-0.41,0.06-0.81,0.12-1.19,0.18c-0.2,0.03-0.4,0.06-0.59,0.09
		c-0.36,0.05-0.71,0.1-1.02,0.15c-0.16,0.02-0.32,0.05-0.47,0.07c-0.26,0.04-0.52,0.07-0.73,0.1c-0.2,0.03-0.37,0.05-0.52,0.07
		c-0.11,0.01-0.25,0.03-0.33,0.05c-0.14,0.02-0.28,0.04-0.28,0.04l0.02,0.01c-17.47,2.18-25.34,10.49-28.88,17.35
		c-2.75,5.33-2.89,9.78-2.89,9.78c-0.12,1.12-0.18,2.2-0.18,3.25c0,0.62,0.06,1.2,0.1,1.79c0.03,0.4,0.02,0.83,0.07,1.22l0,0
		c1.55,13.81,13.62,20.62,20.35,23.38h0l4.04,1.89l22.77,12.92l-2.01,1.18c-0.12,0.07-0.23,0.14-0.35,0.2l-0.06,0.04l0,0
		c-11.82,6.66-32.05,6.14-32.05,6.14l-1.82,16.75c0.01,0,0.01,0,0.02,0l-0.02,0.15c41-2.22,40.88-22.81,40.88-22.81
		c0.17-1.52,0.22-2.97,0.19-4.34c0-0.03,0.01-0.07,0-0.1l-0.01,0.01c-0.51-20.12-20.78-24.28-20.78-24.28
		c-19.44-5.65-25.88-18.67-25.88-18.67c0.8-1.14,1.89-2.19,3.19-3.16c1.3-0.96,2.81-1.84,4.44-2.64c0.82-0.4,1.66-0.78,2.53-1.13
		c4.33-1.79,9.16-3.09,13.14-3.97c4.78-1.06,8.33-1.52,8.33-1.52c29.07-3.39,28.94-22.67,28.94-22.67c0.09-0.85,0.07-1.68-0.04-2.5
		c0,0-0.01,0.01-0.01,0.01c-1.73-13.42-28.54-22.64-28.54-22.64c-21.46-9.08-23.55-21.15-23.68-24.71c0.01-0.04,0.44-1.75,1.63-3.27
		C275.94,236.33,277.43,234.77,278.98,233.45z"/>
	<path class="st0" d="M461.92,395.35c3.29-4.73,7.17-9.07,10.93-13.46c37.97-44.38,75.96-88.74,113.94-133.12
		c3.38-3.95,6.66-7.99,11.14-13.38c-15.27,0.01-29.94,0.02-44.78,0.03l0,0.1l-44.4,0.03c-0.71,0.05-1.43,0.09-2.19,0.09
		c-65.66-0.1-131.32,0-196.97,0.05c-2.52,0-5.05,0-8.91,0.01c2.39,3.02,3.78,4.89,5.29,6.66c39.61,46.15,79.22,92.31,118.88,138.43
		c4.7,5.47,9.5,10.8,12.53,16.96c2.15,4.98,2.4,10.21,2.42,11.92v10.32c-0.11,2.34-0.08,4.71,0,7.08v0.19l0.01-0.02
		c0.11,3.04,0.27,6.08,0.27,9.1c0.01,22.64,0.02,45.29,0.03,67.93l0,0l0,0.17c0,3.3,0,6.6,0,9.9l0.07-0.03l0.67,86.66l0.03-0.07
		c0.02,10.66,0.02,21.32,0.06,31.98c0.02,4.96-1.48,7.77-5.87,10.22c-18.1,10.12-35.99,20.64-53.93,31.05
		c-1.49,0.86-2.81,2.01-5.26,3.79c49.94-0.04,98.38-0.07,146.82-0.11c0.17-0.41,0.34-0.81,0.5-1.22c-1.58-0.98-3.13-2.01-4.74-2.94
		c-17.96-10.38-35.87-20.86-53.95-31.02c-3.86-2.17-5.3-4.61-5.29-9.06c0.08-25.93,0.11-51.86,0.14-77.79l0.01-0.02l-0.01-0.61
		c0.01-4.29,0.02-8.58,0.02-12.87l-0.14,0.06l-0.47-53.84c0.04-28.25,0.08-56.49,0.17-84.74
		C458.96,400.94,460.27,397.73,461.92,395.35z M449.37,390.88l-12.75-14.96l-71.08-82.33c-0.11-0.1-0.23-0.19-0.32-0.3
		c-11.84-13.36-23.38-27-34.97-40.58c-0.39-0.46-0.42-1.22-0.77-2.29c4.94,0,9.87-0.01,14.81-0.01c25.86-0.02,51.7-0.04,77.68-0.06
		c24.97-0.02,50.07-0.04,75.51-0.06l16.73-0.01l30.52-0.02l5.23,0l-0.06,0.07c1.35-0.01,2.7-0.04,4.06-0.07l15.09-0.01
		c-0.54,1.25-0.81,2.24-1.4,2.94c-0.86,1.01-1.73,2.03-2.59,3.04l0,0l-0.43,0.5c-9.55,11.24-19.12,22.47-28.83,33.56L449.37,390.88z
		"/>
</g>
</svg>
